<svg width="256" height="256" viewBox="0 0 256 256" fill="none" xmlns="http://www.w3.org/2000/svg">
<rect width="256" height="256" rx="50" fill="#171D34"/>
<mask id="path-2-inside-1_565_73" fill="white">
<path d="M142.703 34.7208C143.461 29.7312 140.029 25.0297 134.992 24.713C118.342 23.666 101.637 26.6395 86.306 33.4414C68.1831 41.4823 52.7374 54.5378 41.7905 71.0684C30.8436 87.599 24.8519 106.915 24.5222 126.739C24.1925 146.563 29.5384 166.068 39.9295 182.953C50.3206 199.839 65.3236 213.401 83.1691 222.04C101.015 230.679 120.958 234.035 140.648 231.712C160.338 229.389 178.954 221.484 194.299 208.929C207.279 198.308 217.462 184.735 224.031 169.4C226.018 164.761 223.367 159.578 218.571 158.006V158.006C213.776 156.434 208.658 159.074 206.584 163.675C201.16 175.711 193.008 186.372 182.726 194.784C170.078 205.132 154.736 211.647 138.507 213.562C122.278 215.476 105.841 212.71 91.1326 205.59C76.4243 198.47 64.0589 187.292 55.4945 173.375C46.9301 159.458 42.524 143.382 42.7958 127.043C43.0675 110.704 48.0058 94.7837 57.0283 81.1592C66.0508 67.5347 78.7811 56.7743 93.718 50.1471C105.861 44.7593 119.051 42.2859 132.241 42.8673C137.283 43.0895 141.946 39.7105 142.703 34.7208V34.7208Z"/>
</mask>
<path d="M142.703 34.7208C143.461 29.7312 140.029 25.0297 134.992 24.713C118.342 23.666 101.637 26.6395 86.306 33.4414C68.1831 41.4823 52.7374 54.5378 41.7905 71.0684C30.8436 87.599 24.8519 106.915 24.5222 126.739C24.1925 146.563 29.5384 166.068 39.9295 182.953C50.3206 199.839 65.3236 213.401 83.1691 222.04C101.015 230.679 120.958 234.035 140.648 231.712C160.338 229.389 178.954 221.484 194.299 208.929C207.279 198.308 217.462 184.735 224.031 169.4C226.018 164.761 223.367 159.578 218.571 158.006V158.006C213.776 156.434 208.658 159.074 206.584 163.675C201.16 175.711 193.008 186.372 182.726 194.784C170.078 205.132 154.736 211.647 138.507 213.562C122.278 215.476 105.841 212.71 91.1326 205.59C76.4243 198.47 64.0589 187.292 55.4945 173.375C46.9301 159.458 42.524 143.382 42.7958 127.043C43.0675 110.704 48.0058 94.7837 57.0283 81.1592C66.0508 67.5347 78.7811 56.7743 93.718 50.1471C105.861 44.7593 119.051 42.2859 132.241 42.8673C137.283 43.0895 141.946 39.7105 142.703 34.7208V34.7208Z" stroke="url(#paint0_linear_565_73)" stroke-width="90" mask="url(#path-2-inside-1_565_73)"/>
<rect x="61.6812" y="125.125" width="22.5335" height="70.734" rx="8" transform="rotate(-45 61.6812 125.125)" fill="#7764E8"/>
<path d="M170.745 86.0552C173.869 82.931 178.934 82.931 182.058 86.0552L186.678 90.6751C189.802 93.7993 189.802 98.8646 186.678 101.989L118.324 170.343C115.2 173.467 110.134 173.467 107.01 170.343L96.7333 160.066L170.745 86.0552Z" fill="white"/>
<defs>
<linearGradient id="paint0_linear_565_73" x1="20.2015" y1="10.0789" x2="237.545" y2="247.073" gradientUnits="userSpaceOnUse">
<stop stop-color="white"/>
<stop offset="1" stop-color="white" stop-opacity="0"/>
</linearGradient>
</defs>
</svg>
