<svg width="256" height="256" viewBox="0 0 256 256" fill="none" xmlns="http://www.w3.org/2000/svg">
<rect width="256" height="256" rx="70" fill="#171D34"/>
<mask id="path-2-inside-1_18_4" fill="white">
<path d="M142.874 33.5957C143.538 29.2275 140.534 25.1162 136.127 24.7906C119.103 23.5328 101.985 26.4849 86.3063 33.4414C68.1833 41.4823 52.7377 54.5378 41.7907 71.0684C30.8438 87.599 24.8522 106.915 24.5225 126.739C24.1927 146.563 29.5386 166.068 39.9298 182.953C50.3209 199.839 65.3238 213.401 83.1693 222.04C101.015 230.679 120.959 234.035 140.649 231.712C160.339 229.389 178.954 221.484 194.299 208.929C207.575 198.067 217.924 184.117 224.473 168.352C226.168 164.271 223.852 159.737 219.653 158.361L217.49 157.652C213.292 156.275 208.807 158.583 207.045 162.634C201.626 175.097 193.303 186.13 182.726 194.784C170.079 205.132 154.736 211.647 138.507 213.562C122.279 215.476 105.841 212.71 91.1328 205.59C76.4245 198.47 64.0591 187.292 55.4947 173.375C46.9304 159.458 42.5243 143.382 42.796 127.043C43.0678 110.704 48.0061 94.7837 57.0285 81.1592C66.051 67.5347 78.7813 56.7743 93.7183 50.1471C106.21 44.6046 119.81 42.1462 133.378 42.9249C137.789 43.1781 141.869 40.2142 142.533 35.846L142.874 33.5957Z"/>
</mask>
<path d="M142.874 33.5957C143.538 29.2275 140.534 25.1162 136.127 24.7906C119.103 23.5328 101.985 26.4849 86.3063 33.4414C68.1833 41.4823 52.7377 54.5378 41.7907 71.0684C30.8438 87.599 24.8522 106.915 24.5225 126.739C24.1927 146.563 29.5386 166.068 39.9298 182.953C50.3209 199.839 65.3238 213.401 83.1693 222.04C101.015 230.679 120.959 234.035 140.649 231.712C160.339 229.389 178.954 221.484 194.299 208.929C207.575 198.067 217.924 184.117 224.473 168.352C226.168 164.271 223.852 159.737 219.653 158.361L217.49 157.652C213.292 156.275 208.807 158.583 207.045 162.634C201.626 175.097 193.303 186.13 182.726 194.784C170.079 205.132 154.736 211.647 138.507 213.562C122.279 215.476 105.841 212.71 91.1328 205.59C76.4245 198.47 64.0591 187.292 55.4947 173.375C46.9304 159.458 42.5243 143.382 42.796 127.043C43.0678 110.704 48.0061 94.7837 57.0285 81.1592C66.051 67.5347 78.7813 56.7743 93.7183 50.1471C106.21 44.6046 119.81 42.1462 133.378 42.9249C137.789 43.1781 141.869 40.2142 142.533 35.846L142.874 33.5957Z" stroke="url(#paint0_linear_18_4)" stroke-width="26" mask="url(#path-2-inside-1_18_4)"/>
<rect x="61.6814" y="125.125" width="22.5335" height="70.734" rx="9" transform="rotate(-45 61.6814 125.125)" fill="#7764E8"/>
<path d="M169.33 87.4695C173.236 83.5642 179.567 83.5642 183.473 87.4694L185.264 89.2609C189.169 93.1662 189.169 99.4978 185.264 103.403L118.324 170.343C115.2 173.467 110.134 173.467 107.01 170.343L96.7335 160.066L169.33 87.4695Z" fill="white"/>
<defs>
<linearGradient id="paint0_linear_18_4" x1="20.2017" y1="10.0789" x2="237.545" y2="247.073" gradientUnits="userSpaceOnUse">
<stop stop-color="white"/>
<stop offset="1" stop-color="white" stop-opacity="0"/>
</linearGradient>
</defs>
</svg>
